<svg preserveAspectRatio="none" overflow="visible" style="display: block;" width="10.0042" height="9.89053" viewBox="0 0 10.0042 9.89053" fill="none" xmlns="http://www.w3.org/2000/svg">
<path id="Vector" d="M5.00211 0C5.72211 0 6.38526 0.126316 6.99158 0.378948C7.61052 0.618948 8.14105 0.960001 8.58316 1.40211C9.0379 1.83158 9.38527 2.34947 9.62527 2.95579C9.8779 3.56211 10.0042 4.22526 10.0042 4.94526C10.0042 5.66526 9.8779 6.32842 9.62527 6.93474C9.38527 7.54105 9.0379 8.06526 8.58316 8.50737C8.14105 8.93684 7.61052 9.2779 6.99158 9.53053C6.38526 9.77053 5.72211 9.89053 5.00211 9.89053C4.28211 9.89053 3.61263 9.77053 2.99369 9.53053C2.38737 9.2779 1.85684 8.93684 1.40211 8.50737C0.960002 8.06526 0.612632 7.54105 0.360001 6.93474C0.120001 6.32842 0 5.66526 0 4.94526C0 4.22526 0.120001 3.56211 0.360001 2.95579C0.612632 2.34947 0.960002 1.83158 1.40211 1.40211C1.85684 0.960001 2.38737 0.618948 2.99369 0.378948C3.61263 0.126316 4.28211 0 5.00211 0ZM5.00211 7.23789C5.29263 7.23789 5.56421 7.18737 5.81684 7.08632C6.0821 6.97263 6.31579 6.82105 6.5179 6.63158C6.72 6.42947 6.87789 6.18947 6.99158 5.91158C7.10526 5.62105 7.16211 5.29895 7.16211 4.94526C7.16211 4.59158 7.10526 4.27579 6.99158 3.99789C6.87789 3.72 6.72 3.48 6.5179 3.2779C6.31579 3.07579 6.0821 2.92421 5.81684 2.82316C5.56421 2.70947 5.29263 2.65263 5.00211 2.65263C4.71158 2.65263 4.43369 2.70947 4.16842 2.82316C3.91579 2.92421 3.68842 3.07579 3.48632 3.2779C3.28421 3.48 3.12632 3.72 3.01263 3.99789C2.89895 4.27579 2.84211 4.59158 2.84211 4.94526C2.84211 5.29895 2.89895 5.62105 3.01263 5.91158C3.12632 6.18947 3.28421 6.42947 3.48632 6.63158C3.68842 6.82105 3.91579 6.97263 4.16842 7.08632C4.43369 7.18737 4.71158 7.23789 5.00211 7.23789Z" fill="#676479"/>
</svg>
